<?xml version="1.0" encoding="utf-8"?>
<svg version="1.1" xmlns:xlink="http://www.w3.org/1999/xlink" width="30px" height="30px" xmlns="http://www.w3.org/2000/svg">
  <g transform="matrix(1 0 0 1 718 398 )">
    <path d="M 12.88125 30  L 14.375 25.105  L 12.95125 22.5  L 14.9675 22.5  L 17.04875 22.5  L 15.625 25.105  L 17.11875 30  L 30 30  C 30 21.25  20 23.75  18.75 20  L 18.75 17.5  C 19.3125 17.22125  20.92125 15.30625  21.09 13.81  C 21.5325 13.77625  22.2275 13.37  22.4325 11.76625  C 22.5425 10.905  22.105 10.42125  21.84 10.26875  C 21.84 10.26875  22.5 9.015  22.5 7.50125  C 22.5 4.46625  21.30875 1.87625  18.75 1.87625  C 18.75 1.87625  17.86125 0.00124999999999931  15 0.00124999999999931  C 9.6975 0.00124999999999931  7.5 3.4025  7.5 7.50125  C 7.5 8.88125  8.16 10.26875  8.16 10.26875  C 7.895 10.42125  7.4575 10.90625  7.5675 11.76625  C 7.7725 13.37  8.4675 13.77625  8.91 13.81  C 9.07875 15.30625  10.6875 17.22125  11.25 17.5  L 11.25 20  C 10 23.75  0 21.25  0 30  L 12.88125 30  Z " fill-rule="nonzero" fill="#000000" stroke="none" transform="matrix(1 0 0 1 -718 -398 )" />
  </g>
</svg>