<?xml version="1.0" encoding="utf-8"?>
<svg version="1.1" xmlns:xlink="http://www.w3.org/1999/xlink" width="30px" height="30px" xmlns="http://www.w3.org/2000/svg">
  <g transform="matrix(1 0 0 1 -459 -451 )">
    <path d="M 13 8.57142857142857  L 13 27.8571428571429  L 27.8571428571429 27.8571428571429  L 27.8571428571429 17.1428571428571  L 20.8928571428571 17.1428571428571  C 20.4464285714286 17.1428571428571  20.0669642857143 16.9866071428571  19.7544642857143 16.6741071428571  C 19.4419642857143 16.3616071428571  19.2857142857143 15.9821428571429  19.2857142857143 15.5357142857143  L 19.2857142857143 8.57142857142857  L 13 8.57142857142857  Z M 16.9838169642857 4.12667410714286  C 17.08984375 4.02064732142857  17.1428571428571 3.89508928571428  17.1428571428571 3.75  L 17.1428571428571 2.67857142857143  C 17.1428571428571 2.53348214285714  17.08984375 2.40792410714286  16.9838169642857 2.30189732142857  C 16.8777901785714 2.19587053571428  16.7522321428571 2.14285714285714  16.6071428571429 2.14285714285714  L 4.82142857142857 2.14285714285714  C 4.67633928571429 2.14285714285714  4.55078125 2.19587053571428  4.44475446428571 2.30189732142857  C 4.33872767857143 2.40792410714286  4.28571428571429 2.53348214285714  4.28571428571429 2.67857142857143  L 4.28571428571429 3.75  C 4.28571428571429 3.89508928571428  4.33872767857143 4.02064732142857  4.44475446428571 4.12667410714286  C 4.55078125 4.23270089285714  4.67633928571429 4.28571428571429  4.82142857142857 4.28571428571429  L 16.6071428571429 4.28571428571429  C 16.7522321428571 4.28571428571429  16.8777901785714 4.23270089285714  16.9838169642857 4.12667410714286  Z M 21.4285714285714 9.99441964285714  L 21.4285714285714 15  L 26.4341517857143 15  L 21.4285714285714 9.99441964285714  Z M 29.6651785714286 15.6696428571429  C 29.8883928571429 16.2053571428571  30 16.6964285714286  30 17.1428571428571  L 30 28.3928571428571  C 30 28.8392857142857  29.84375 29.21875  29.53125 29.53125  C 29.21875 29.84375  28.8392857142857 30  28.3928571428571 30  L 12.3214285714286 30  C 11.875 30  11.4955357142857 29.84375  11.1830357142857 29.53125  C 10.8705357142857 29.21875  10.7142857142857 28.8392857142857  10.7142857142857 28.3928571428571  L 10.7142857142857 25.7142857142857  L 1.60714285714286 25.7142857142857  C 1.16071428571429 25.7142857142857  0.78125 25.5580357142857  0.46875 25.2455357142857  C 0.15625 24.9330357142857  0 24.5535714285714  0 24.1071428571429  L 0 1.60714285714286  C 0 1.16071428571428  0.15625 0.781249999999999  0.46875 0.46875  C 0.78125 0.156250000000001  1.16071428571429 0  1.60714285714286 0  L 19.8214285714286 0  C 20.2678571428571 0  20.6473214285714 0.156250000000001  20.9598214285714 0.46875  C 21.2723214285714 0.781249999999999  21.4285714285714 1.16071428571428  21.4285714285714 1.60714285714286  L 21.4285714285714 7.09821428571429  C 21.6629464285714 7.24330357142857  21.8638392857143 7.39955357142857  22.03125 7.56696428571429  L 28.8616071428571 14.3973214285714  C 29.1741071428571 14.7098214285714  29.4419642857143 15.1339285714286  29.6651785714286 15.6696428571429  Z " fill-rule="nonzero" fill="#000000" stroke="none" transform="matrix(1 0 0 1 459 451 )" />
  </g>
</svg>