<?xml version="1.0" encoding="utf-8"?>
<svg version="1.1" xmlns:xlink="http://www.w3.org/1999/xlink" width="20px" height="20px" xmlns="http://www.w3.org/2000/svg">
  <g transform="matrix(1 0 0 1 -1328 -163 )">
    <path d="M 8.5875 20  L 9.58333333333333 16.7366666666667  L 8.63416666666667 15  L 9.97833333333333 15  L 11.3658333333333 15  L 10.4166666666667 16.7366666666667  L 11.4125 20  L 20 20  C 20 14.1666666666667  13.3333333333333 15.8333333333333  12.5 13.3333333333333  L 12.5 11.6666666666667  C 12.875 11.4808333333333  13.9475 10.2041666666667  14.06 9.20666666666667  C 14.355 9.18416666666667  14.8183333333333 8.91333333333333  14.955 7.84416666666667  C 15.0283333333333 7.27  14.7366666666667 6.9475  14.56 6.84583333333333  C 14.56 6.84583333333333  15 6.01  15 5.00083333333333  C 15 2.9775  14.2058333333333 1.25083333333333  12.5 1.25083333333333  C 12.5 1.25083333333333  11.9075 0.000833333333332871  10 0.000833333333332871  C 6.465 0.000833333333332871  5 2.26833333333333  5 5.00083333333333  C 5 5.92083333333333  5.44 6.84583333333333  5.44 6.84583333333333  C 5.26333333333333 6.9475  4.97166666666667 7.27083333333333  5.045 7.84416666666667  C 5.18166666666667 8.91333333333333  5.645 9.18416666666667  5.94 9.20666666666667  C 6.0525 10.2041666666667  7.125 11.4808333333333  7.5 11.6666666666667  L 7.5 13.3333333333333  C 6.66666666666667 15.8333333333333  0 14.1666666666667  0 20  L 8.5875 20  Z " fill-rule="nonzero" fill="#000000" stroke="none" transform="matrix(1 0 0 1 1328 163 )" />
  </g>
</svg>