<?xml version="1.0" encoding="utf-8"?>
<svg version="1.1" xmlns:xlink="http://www.w3.org/1999/xlink" width="20px" height="20px" xmlns="http://www.w3.org/2000/svg">
  <g transform="matrix(1 0 0 1 -1208 -165 )">
    <path d="M 5 13  L 5 18  L 15 18  L 15 13  L 5 13  Z M 16.6666666666667 12.9166666666667  L 16.6666666666667 18.3333333333333  L 18 18.3333333333333  L 18 6.66666666666667  C 18.3333333333333 6.54513888888889  18.2899305555556 6.37803819444444  18.203125 6.16536458333333  C 18.1163194444444 5.95269097222222  18.0295138888889 5.80295138888889  17.9427083333333 5.71614583333333  L 14.2838541666667 2.05729166666667  C 14.1970486111111 1.97048611111111  14.0494791666667 1.88368055555555  13.8411458333333 1.796875  C 13.6328125 1.71006944444444  13.4635416666667 1.66666666666667  13.3333333333333 1.66666666666667  L 13.3333333333333 7.08333333333333  C 13.3333333333333 7.43055555555556  13.2118055555556 7.72569444444444  12.96875 7.96875  C 12.7256944444444 8.21180555555556  12.4305555555556 8.33333333333333  12.0833333333333 8.33333333333333  L 4.58333333333333 8.33333333333333  C 4.23611111111111 8.33333333333333  3.94097222222222 8.21180555555556  3.69791666666667 7.96875  C 3.45486111111111 7.72569444444444  3.33333333333333 7.43055555555556  3.33333333333333 7.08333333333333  L 3.33333333333333 1.66666666666667  L 2 1.66666666666667  L 2 18.3333333333333  L 3.33333333333333 18.3333333333333  L 3.33333333333333 12.9166666666667  C 3.33333333333333 12.5694444444444  3.45486111111111 12.2743055555556  3.69791666666667 12.03125  C 3.94097222222222 11.7881944444444  4.23611111111111 11.6666666666667  4.58333333333333 11.6666666666667  L 15.4166666666667 11.6666666666667  C 15.7638888888889 11.6666666666667  16.0590277777778 11.7881944444444  16.3020833333333 12.03125  C 16.5451388888889 12.2743055555556  16.6666666666667 12.5694444444444  16.6666666666667 12.9166666666667  Z M 11.54296875 6.54296875  C 11.6254340277778 6.46050347222222  11.6666666666667 6.36284722222222  11.6666666666667 6.25  L 11.6666666666667 2.08333333333333  C 11.6666666666667 1.97048611111111  11.6254340277778 1.87282986111111  11.54296875 1.79036458333333  C 11.4605034722222 1.70789930555555  11.3628472222222 1.66666666666667  11.25 1.66666666666667  L 8.75 1.66666666666667  C 8.63715277777778 1.66666666666667  8.53949652777778 1.70789930555555  8.45703125 1.79036458333333  C 8.37456597222222 1.87282986111111  8.33333333333333 1.97048611111111  8.33333333333333 2.08333333333333  L 8.33333333333333 6.25  C 8.33333333333333 6.36284722222222  8.37456597222222 6.46050347222222  8.45703125 6.54296875  C 8.53949652777778 6.62543402777778  8.63715277777778 6.66666666666667  8.75 6.66666666666667  L 11.25 6.66666666666667  C 11.3628472222222 6.66666666666667  11.4605034722222 6.62543402777778  11.54296875 6.54296875  Z M 19.7395833333333 5.52083333333333  C 19.9131944444444 5.9375  20 6.31944444444444  20 6.66666666666667  L 20 18.75  C 20 19.0972222222222  19.8784722222222 19.3923611111111  19.6354166666667 19.6354166666667  C 19.3923611111111 19.8784722222222  19.0972222222222 20  18.75 20  L 1.25 20  C 0.902777777777778 20  0.607638888888889 19.8784722222222  0.364583333333333 19.6354166666667  C 0.121527777777778 19.3923611111111  0 19.0972222222222  0 18.75  L 0 1.25  C 0 0.902777777777777  0.121527777777778 0.607638888888886  0.364583333333333 0.364583333333333  C 0.607638888888889 0.121527777777777  0.902777777777778 0  1.25 0  L 13.3333333333333 0  C 13.6805555555556 0  14.0625 0.0868055555555536  14.4791666666667 0.260416666666667  C 14.8958333333333 0.434027777777777  15.2256944444444 0.642361111111109  15.46875 0.885416666666667  L 19.1145833333333 4.53125  C 19.3576388888889 4.77430555555555  19.5659722222222 5.10416666666667  19.7395833333333 5.52083333333333  Z " fill-rule="nonzero" fill="#4a88fb" stroke="none" transform="matrix(1 0 0 1 1208 165 )" />
  </g>
</svg>