<?xml version="1.0" encoding="utf-8"?>
<svg version="1.1" xmlns:xlink="http://www.w3.org/1999/xlink" width="25px" height="25px" xmlns="http://www.w3.org/2000/svg">
  <g transform="matrix(1 0 0 1 -1325 -1395 )">
    <path d="M 10.734375 25  L 11.9791666666667 20.9208333333333  L 10.7927083333333 18.75  L 12.4729166666667 18.75  L 14.2072916666667 18.75  L 13.0208333333333 20.9208333333333  L 14.265625 25  L 25 25  C 25 17.7083333333333  16.6666666666667 19.7916666666667  15.625 16.6666666666667  L 15.625 14.5833333333333  C 16.09375 14.3510416666667  17.434375 12.7552083333333  17.575 11.5083333333333  C 17.94375 11.4802083333333  18.5229166666667 11.1416666666667  18.69375 9.80520833333333  C 18.7854166666667 9.0875  18.4208333333333 8.684375  18.2 8.55729166666667  C 18.2 8.55729166666667  18.75 7.5125  18.75 6.25104166666667  C 18.75 3.721875  17.7572916666667 1.56354166666667  15.625 1.56354166666667  C 15.625 1.56354166666667  14.884375 0.00104166666666609  12.5 0.00104166666666609  C 8.08125 0.00104166666666609  6.25 2.83541666666667  6.25 6.25104166666667  C 6.25 7.40104166666667  6.8 8.55729166666667  6.8 8.55729166666667  C 6.57916666666667 8.684375  6.21458333333333 9.08854166666667  6.30625 9.80520833333333  C 6.47708333333333 11.1416666666667  7.05625 11.4802083333333  7.425 11.5083333333333  C 7.565625 12.7552083333333  8.90625 14.3510416666667  9.375 14.5833333333333  L 9.375 16.6666666666667  C 8.33333333333333 19.7916666666667  0 17.7083333333333  0 25  L 10.734375 25  Z " fill-rule="nonzero" fill="#000000" stroke="none" transform="matrix(1 0 0 1 1325 1395 )" />
  </g>
</svg>